# xmcd
#
# Track frame offsets: 
#        182
#        14532
#        29012
#        44252
#        57722
#        75097
#        86857
#        102505
#        115495
#        128385
#        147740
#        160350
#        176782
#        190892
#        203025
#        218482
#        234715
#        247270
#
# Disc length: 3523 seconds
#
# Revision: 1
# Processed by: cddbd v1.5.1PL0 Copyright (c) Steve Scherf et al.
# Submitted via: ExactAudioCopy v0.95a5
#
DISCID=0c0dc112
DTITLE=Various Artist - The Country Dance Kings
DYEAR=1995
DGENRE=Country
TTITLE0=Rock My World (Little Country Girl)
TTITLE1=Chattahoochee
TTITLE2=Trashy Women
TTITLE3=One More Last Chance
TTITLE4=Prop Me Up Beside The Jukebox (If I Die)
TTITLE5=My Baby Loves Me
TTITLE6=Blame It On Your Heart
TTITLE7=Live Until I Die
TTITLE8=State Of Mind
TTITLE9=I Swear
TTITLE10=What's It To You
TTITLE11=Fast As You
TTITLE12=That's My Story
TTITLE13=Wild One
TTITLE14=Reckless
TTITLE15=Mercury Blues
TTITLE16=Cowboy Boogie
TTITLE17=Ain't Going Down ('Til The Sun Comes Up)
EXTD=by Jorge Santos (Portugal)
EXTT0=
EXTT1=
EXTT2=
EXTT3=
EXTT4=
EXTT5=
EXTT6=
EXTT7=
EXTT8=
EXTT9=
EXTT10=
EXTT11=
EXTT12=
EXTT13=
EXTT14=
EXTT15=
EXTT16=
EXTT17=
PLAYORDER=
